<svg width="380" height="244" viewBox="0 0 380 244" xmlns="http://www.w3.org/2000/svg" role="img" aria-label="GitHub — Crescimento Relativo (novos ÷ total (30 dias))">
  <defs>
    <linearGradient id="gradGithubGrowth" x1="0%" y1="0%" x2="100%" y2="0%">
      <stop offset="0%" stop-color="#D1D5DB"/>
      <stop offset="100%" stop-color="#374151"/>
    </linearGradient>
  </defs>
  <style>
    text { font-family: -apple-system, BlinkMacSystemFont, "Segoe UI", Helvetica, Arial, sans-serif; font-size: 11.5px; }
    .card { fill: url(#gradGithubGrowth); stroke: #4b5563; stroke-width: 1; }
    .title { fill: #1f2937; font-weight: 700; font-size: 13.5px; }
    .subtitle { fill: #374151; font-size: 10.5px; }
    .lbl { fill: #1f2937; font-weight: 600; }
    .val { fill: #f9fafb; }
    .track { fill: rgba(0,0,0,0.15); }
  </style>
  <rect x="0" y="0" width="380" height="244" rx="14" class="card"/>
  <text x="20" y="35" class="title">GitHub — Crescimento Relativo</text>
  <text x="20" y="50" class="subtitle">novos ÷ total (30 dias)</text>
  
    <text x="104" y="84.0" text-anchor="end" class="lbl">TypeScript</text>
    <rect x="114" y="74.0" width="190" height="12" rx="6" class="track"/>
    <rect x="114" y="74.0" width="190" height="12" rx="6" fill="#3178c6"/>
    <text x="314" y="84.0" class="val">4.6%</text>
    <text x="104" y="116.0" text-anchor="end" class="lbl">Rust</text>
    <rect x="114" y="106.0" width="190" height="12" rx="6" class="track"/>
    <rect x="114" y="106.0" width="155" height="12" rx="6" fill="#dea584"/>
    <text x="314" y="116.0" class="val">3.8%</text>
    <text x="104" y="148.0" text-anchor="end" class="lbl">Python</text>
    <rect x="114" y="138.0" width="190" height="12" rx="6" class="track"/>
    <rect x="114" y="138.0" width="148" height="12" rx="6" fill="#3572A5"/>
    <text x="314" y="148.0" class="val">3.6%</text>
    <text x="104" y="180.0" text-anchor="end" class="lbl">Shell</text>
    <rect x="114" y="170.0" width="190" height="12" rx="6" class="track"/>
    <rect x="114" y="170.0" width="96" height="12" rx="6" fill="#89e051"/>
    <text x="314" y="180.0" class="val">2.3%</text>
    <text x="104" y="212.0" text-anchor="end" class="lbl">Dart</text>
    <rect x="114" y="202.0" width="190" height="12" rx="6" class="track"/>
    <rect x="114" y="202.0" width="95" height="12" rx="6" fill="#8a8a8a"/>
    <text x="314" y="212.0" class="val">2.3%</text>
</svg>