<svg width="380" height="320" viewBox="0 0 380 320" xmlns="http://www.w3.org/2000/svg" role="img" aria-label="Crescimento Relativo">
  <defs>
    <linearGradient id="gradGithubGrowth" x1="0%" y1="0%" x2="100%" y2="0%">
      <stop offset="0%" stop-color="#D1D5DB"/>
      <stop offset="100%" stop-color="#374151"/>
    </linearGradient>
  </defs>
  <style>
    text { font-family: -apple-system, BlinkMacSystemFont, "Segoe UI", Helvetica, Arial, sans-serif; font-size: 13.5px; }
    .card { fill: url(#gradGithubGrowth); stroke: #4b5563; stroke-width: 1; }
    .title { fill: #1f2937; font-weight: 700; font-size: 15.5px; }
    .lbl { fill: #1f2937; font-weight: 600; }
    .val { fill: #f9fafb; }
    .track { fill: rgba(0,0,0,0.15); }
    .bar { stroke: rgba(255,255,255,0.55); stroke-width: 0.75; }
  </style>
  <rect x="0" y="0" width="380" height="320" rx="14" class="card"/>
  <text x="20" y="37" class="title">Crescimento Relativo</text>
  
    <text x="20" y="65" class="lbl">TypeScript</text>
    <rect x="20" y="73" width="286" height="11" rx="5.5" class="track"/>
    <rect x="20" y="73" width="286" height="11" rx="5.5" fill="#3178c6" class="bar"/>
    <text x="314" y="82" class="val">4.5%</text>
    <text x="20" y="115" class="lbl">Rust</text>
    <rect x="20" y="123" width="286" height="11" rx="5.5" class="track"/>
    <rect x="20" y="123" width="234" height="11" rx="5.5" fill="#dea584" class="bar"/>
    <text x="314" y="132" class="val">3.6%</text>
    <text x="20" y="165" class="lbl">Python</text>
    <rect x="20" y="173" width="286" height="11" rx="5.5" class="track"/>
    <rect x="20" y="173" width="222" height="11" rx="5.5" fill="#3572A5" class="bar"/>
    <text x="314" y="182" class="val">3.5%</text>
    <text x="20" y="215" class="lbl">Shell</text>
    <rect x="20" y="223" width="286" height="11" rx="5.5" class="track"/>
    <rect x="20" y="223" width="157" height="11" rx="5.5" fill="#89e051" class="bar"/>
    <text x="314" y="232" class="val">2.4%</text>
    <text x="20" y="265" class="lbl">Dart</text>
    <rect x="20" y="273" width="286" height="11" rx="5.5" class="track"/>
    <rect x="20" y="273" width="143" height="11" rx="5.5" fill="#8a8a8a" class="bar"/>
    <text x="314" y="282" class="val">2.2%</text>
</svg>