<svg width="1172.0" height="244.0" viewBox="0 0 1172.0 244.0" xmlns="http://www.w3.org/2000/svg">
<g transform="translate(0.0,0)">
  <defs>
    <linearGradient id="gradPypl" x1="0%" y1="0%" x2="100%" y2="0%">
      <stop offset="0%" stop-color="#D1D5DB"/>
      <stop offset="100%" stop-color="#374151"/>
    </linearGradient>
  </defs>
  <style>
    text { font-family: -apple-system, BlinkMacSystemFont, "Segoe UI", Helvetica, Arial, sans-serif; font-size: 11.5px; }
    .card { fill: url(#gradPypl); stroke: #4b5563; stroke-width: 1; }
    .title { fill: #1f2937; font-weight: 700; font-size: 13.5px; }
    .subtitle { fill: #374151; font-size: 10.5px; }
    .lbl { fill: #1f2937; font-weight: 600; }
    .val { fill: #f9fafb; }
    .track { fill: rgba(0,0,0,0.15); }
  </style>
  <rect x="0" y="0" width="380" height="244" rx="14" class="card"/>
  <text x="20" y="35" class="title">PYPL</text>
  <text x="20" y="50" class="subtitle">interesse de busca por tutorial · 08/2026</text>
  
    <text x="104" y="84.0" text-anchor="end" class="lbl">Python</text>
    <rect x="114" y="74.0" width="190" height="12" rx="6" class="track"/>
    <rect x="114" y="74.0" width="190" height="12" rx="6" fill="#3572A5"/>
    <text x="314" y="84.0" class="val">50.4%</text>
    <text x="104" y="116.0" text-anchor="end" class="lbl">Java</text>
    <rect x="114" y="106.0" width="190" height="12" rx="6" class="track"/>
    <rect x="114" y="106.0" width="48" height="12" rx="6" fill="#b07219"/>
    <text x="314" y="116.0" class="val">12.8%</text>
    <text x="104" y="148.0" text-anchor="end" class="lbl">C/C++</text>
    <rect x="114" y="138.0" width="190" height="12" rx="6" class="track"/>
    <rect x="114" y="138.0" width="32" height="12" rx="6" fill="#f34b7d"/>
    <text x="314" y="148.0" class="val">8.6%</text>
    <text x="104" y="180.0" text-anchor="end" class="lbl">R</text>
    <rect x="114" y="170.0" width="190" height="12" rx="6" class="track"/>
    <rect x="114" y="170.0" width="16" height="12" rx="6" fill="#198CE7"/>
    <text x="314" y="180.0" class="val">4.2%</text>
    <text x="104" y="212.0" text-anchor="end" class="lbl">JavaScript</text>
    <rect x="114" y="202.0" width="190" height="12" rx="6" class="track"/>
    <rect x="114" y="202.0" width="13" height="12" rx="6" fill="#f1e05a"/>
    <text x="314" y="212.0" class="val">3.5%</text>
</g>
<g transform="translate(396.0,0)">
  <defs>
    <linearGradient id="gradOctoverse" x1="0%" y1="0%" x2="100%" y2="0%">
      <stop offset="0%" stop-color="#D1D5DB"/>
      <stop offset="100%" stop-color="#374151"/>
    </linearGradient>
  </defs>
  <style>
    text { font-family: -apple-system, BlinkMacSystemFont, "Segoe UI", Helvetica, Arial, sans-serif; font-size: 11.5px; }
    .card { fill: url(#gradOctoverse); stroke: #4b5563; stroke-width: 1; }
    .title { fill: #1f2937; font-weight: 700; font-size: 13.5px; }
    .subtitle { fill: #374151; font-size: 10.5px; }
    .lbl { fill: #1f2937; font-weight: 600; }
    .val { fill: #f9fafb; }
    .track { fill: rgba(0,0,0,0.15); }
  </style>
  <rect x="0" y="0" width="380" height="244" rx="14" class="card"/>
  <text x="20" y="35" class="title">GitHub Octoverse</text>
  <text x="20" y="50" class="subtitle">contribuidores mensais · ago/2025</text>
  
    <text x="104" y="84.0" text-anchor="end" class="lbl">TypeScript</text>
    <rect x="114" y="74.0" width="190" height="12" rx="6" class="track"/>
    <rect x="114" y="74.0" width="190" height="12" rx="6" fill="#3178c6"/>
    <text x="314" y="84.0" class="val">2.64M</text>
    <text x="104" y="116.0" text-anchor="end" class="lbl">Python</text>
    <rect x="114" y="106.0" width="190" height="12" rx="6" class="track"/>
    <rect x="114" y="106.0" width="187" height="12" rx="6" fill="#3572A5"/>
    <text x="314" y="116.0" class="val">2.60M</text>
    <text x="104" y="148.0" text-anchor="end" class="lbl">JavaScript</text>
    <rect x="114" y="138.0" width="190" height="12" rx="6" class="track"/>
    <rect x="114" y="138.0" width="155" height="12" rx="6" fill="#f1e05a"/>
    <text x="314" y="148.0" class="val">2.15M</text>
    <text x="104" y="180.0" text-anchor="end" class="lbl">Java *</text>
    <rect x="114" y="170.0" width="190" height="12" rx="6" class="track"/>
    <rect x="114" y="170.0" width="73" height="12" rx="6" fill="#b07219"/>
    <text x="314" y="180.0" class="val">~1.02M</text>
    <text x="104" y="212.0" text-anchor="end" class="lbl">C# *</text>
    <rect x="114" y="202.0" width="190" height="12" rx="6" class="track"/>
    <rect x="114" y="202.0" width="54" height="12" rx="6" fill="#178600"/>
    <text x="314" y="212.0" class="val">~0.75M</text>
</g>
<g transform="translate(792.0,0)">
  <defs>
    <linearGradient id="gradStackoverflow" x1="0%" y1="0%" x2="100%" y2="0%">
      <stop offset="0%" stop-color="#D1D5DB"/>
      <stop offset="100%" stop-color="#374151"/>
    </linearGradient>
  </defs>
  <style>
    text { font-family: -apple-system, BlinkMacSystemFont, "Segoe UI", Helvetica, Arial, sans-serif; font-size: 11.5px; }
    .card { fill: url(#gradStackoverflow); stroke: #4b5563; stroke-width: 1; }
    .title { fill: #1f2937; font-weight: 700; font-size: 13.5px; }
    .subtitle { fill: #374151; font-size: 10.5px; }
    .lbl { fill: #1f2937; font-weight: 600; }
    .val { fill: #f9fafb; }
    .track { fill: rgba(0,0,0,0.15); }
  </style>
  <rect x="0" y="0" width="380" height="244" rx="14" class="card"/>
  <text x="20" y="35" class="title">Stack Overflow Survey</text>
  <text x="20" y="50" class="subtitle">% de respondentes · pesquisa de 2025, ~49 mil respondentes</text>
  
    <text x="104" y="84.0" text-anchor="end" class="lbl">JavaScript</text>
    <rect x="114" y="74.0" width="190" height="12" rx="6" class="track"/>
    <rect x="114" y="74.0" width="190" height="12" rx="6" fill="#f1e05a"/>
    <text x="314" y="84.0" class="val">66.0%</text>
    <text x="104" y="116.0" text-anchor="end" class="lbl">SQL</text>
    <rect x="114" y="106.0" width="190" height="12" rx="6" class="track"/>
    <rect x="114" y="106.0" width="169" height="12" rx="6" fill="#e38c00"/>
    <text x="314" y="116.0" class="val">58.6%</text>
    <text x="104" y="148.0" text-anchor="end" class="lbl">Python</text>
    <rect x="114" y="138.0" width="190" height="12" rx="6" class="track"/>
    <rect x="114" y="138.0" width="167" height="12" rx="6" fill="#3572A5"/>
    <text x="314" y="148.0" class="val">57.9%</text>
    <text x="104" y="180.0" text-anchor="end" class="lbl">Bash/Shell</text>
    <rect x="114" y="170.0" width="190" height="12" rx="6" class="track"/>
    <rect x="114" y="170.0" width="140" height="12" rx="6" fill="#89e051"/>
    <text x="314" y="180.0" class="val">48.7%</text>
    <text x="104" y="212.0" text-anchor="end" class="lbl">TypeScript</text>
    <rect x="114" y="202.0" width="190" height="12" rx="6" class="track"/>
    <rect x="114" y="202.0" width="126" height="12" rx="6" fill="#3178c6"/>
    <text x="314" y="212.0" class="val">43.6%</text>
</g>
</svg>
