<svg width="1172.0" height="230.0" viewBox="0 0 1172.0 230.0" xmlns="http://www.w3.org/2000/svg">
<g transform="translate(0.0,0)">
  <defs>
    <linearGradient id="gradGithubNew" x1="0%" y1="0%" x2="100%" y2="0%">
      <stop offset="0%" stop-color="#D1D5DB"/>
      <stop offset="100%" stop-color="#374151"/>
    </linearGradient>
  </defs>
  <style>
    text { font-family: -apple-system, BlinkMacSystemFont, "Segoe UI", Helvetica, Arial, sans-serif; font-size: 11.5px; }
    .card { fill: url(#gradGithubNew); stroke: #4b5563; stroke-width: 1; }
    .title { fill: #1f2937; font-weight: 700; font-size: 13.5px; }
    .lbl { fill: #1f2937; font-weight: 600; }
    .val { fill: #f9fafb; }
    .track { fill: rgba(0,0,0,0.15); }
  </style>
  <rect x="0" y="0" width="380" height="230" rx="14" class="card"/>
  <text x="20" y="37" class="title">Repositórios Novos</text>
  
    <text x="104" y="70.0" text-anchor="end" class="lbl">Python</text>
    <rect x="114" y="60.0" width="190" height="12" rx="6" class="track"/>
    <rect x="114" y="60.0" width="190" height="12" rx="6" fill="#3572A5"/>
    <text x="314" y="70.0" class="val">1157.6k</text>
    <text x="104" y="102.0" text-anchor="end" class="lbl">JavaScript</text>
    <rect x="114" y="92.0" width="190" height="12" rx="6" class="track"/>
    <rect x="114" y="92.0" width="145" height="12" rx="6" fill="#f1e05a"/>
    <text x="314" y="102.0" class="val">883.7k</text>
    <text x="104" y="134.0" text-anchor="end" class="lbl">TypeScript</text>
    <rect x="114" y="124.0" width="190" height="12" rx="6" class="track"/>
    <rect x="114" y="124.0" width="133" height="12" rx="6" fill="#3178c6"/>
    <text x="314" y="134.0" class="val">809.7k</text>
    <text x="104" y="166.0" text-anchor="end" class="lbl">Java</text>
    <rect x="114" y="156.0" width="190" height="12" rx="6" class="track"/>
    <rect x="114" y="156.0" width="36" height="12" rx="6" fill="#b07219"/>
    <text x="314" y="166.0" class="val">220.6k</text>
    <text x="104" y="198.0" text-anchor="end" class="lbl">C++</text>
    <rect x="114" y="188.0" width="190" height="12" rx="6" class="track"/>
    <rect x="114" y="188.0" width="17" height="12" rx="6" fill="#f34b7d"/>
    <text x="314" y="198.0" class="val">104.3k</text>
</g>
<g transform="translate(396.0,0)">
  <defs>
    <linearGradient id="gradGithubTotal" x1="0%" y1="0%" x2="100%" y2="0%">
      <stop offset="0%" stop-color="#D1D5DB"/>
      <stop offset="100%" stop-color="#374151"/>
    </linearGradient>
  </defs>
  <style>
    text { font-family: -apple-system, BlinkMacSystemFont, "Segoe UI", Helvetica, Arial, sans-serif; font-size: 11.5px; }
    .card { fill: url(#gradGithubTotal); stroke: #4b5563; stroke-width: 1; }
    .title { fill: #1f2937; font-weight: 700; font-size: 13.5px; }
    .lbl { fill: #1f2937; font-weight: 600; }
    .val { fill: #f9fafb; }
    .track { fill: rgba(0,0,0,0.15); }
  </style>
  <rect x="0" y="0" width="380" height="230" rx="14" class="card"/>
  <text x="20" y="37" class="title">Repositórios Totais</text>
  
    <text x="104" y="70.0" text-anchor="end" class="lbl">JavaScript</text>
    <rect x="114" y="60.0" width="190" height="12" rx="6" class="track"/>
    <rect x="114" y="60.0" width="190" height="12" rx="6" fill="#f1e05a"/>
    <text x="314" y="70.0" class="val">46.30M</text>
    <text x="104" y="102.0" text-anchor="end" class="lbl">Python</text>
    <rect x="114" y="92.0" width="190" height="12" rx="6" class="track"/>
    <rect x="114" y="92.0" width="132" height="12" rx="6" fill="#3572A5"/>
    <text x="314" y="102.0" class="val">32.17M</text>
    <text x="104" y="134.0" text-anchor="end" class="lbl">Java</text>
    <rect x="114" y="124.0" width="190" height="12" rx="6" class="track"/>
    <rect x="114" y="124.0" width="88" height="12" rx="6" fill="#b07219"/>
    <text x="314" y="134.0" class="val">21.39M</text>
    <text x="104" y="166.0" text-anchor="end" class="lbl">TypeScript</text>
    <rect x="114" y="156.0" width="190" height="12" rx="6" class="track"/>
    <rect x="114" y="156.0" width="72" height="12" rx="6" fill="#3178c6"/>
    <text x="314" y="166.0" class="val">17.55M</text>
    <text x="104" y="198.0" text-anchor="end" class="lbl">C#</text>
    <rect x="114" y="188.0" width="190" height="12" rx="6" class="track"/>
    <rect x="114" y="188.0" width="31" height="12" rx="6" fill="#178600"/>
    <text x="314" y="198.0" class="val">7.55M</text>
</g>
<g transform="translate(792.0,0)">
  <defs>
    <linearGradient id="gradGithubGrowth" x1="0%" y1="0%" x2="100%" y2="0%">
      <stop offset="0%" stop-color="#D1D5DB"/>
      <stop offset="100%" stop-color="#374151"/>
    </linearGradient>
  </defs>
  <style>
    text { font-family: -apple-system, BlinkMacSystemFont, "Segoe UI", Helvetica, Arial, sans-serif; font-size: 11.5px; }
    .card { fill: url(#gradGithubGrowth); stroke: #4b5563; stroke-width: 1; }
    .title { fill: #1f2937; font-weight: 700; font-size: 13.5px; }
    .lbl { fill: #1f2937; font-weight: 600; }
    .val { fill: #f9fafb; }
    .track { fill: rgba(0,0,0,0.15); }
  </style>
  <rect x="0" y="0" width="380" height="230" rx="14" class="card"/>
  <text x="20" y="37" class="title">Crescimento Relativo</text>
  
    <text x="104" y="70.0" text-anchor="end" class="lbl">TypeScript</text>
    <rect x="114" y="60.0" width="190" height="12" rx="6" class="track"/>
    <rect x="114" y="60.0" width="190" height="12" rx="6" fill="#3178c6"/>
    <text x="314" y="70.0" class="val">4.6%</text>
    <text x="104" y="102.0" text-anchor="end" class="lbl">Rust</text>
    <rect x="114" y="92.0" width="190" height="12" rx="6" class="track"/>
    <rect x="114" y="92.0" width="155" height="12" rx="6" fill="#dea584"/>
    <text x="314" y="102.0" class="val">3.8%</text>
    <text x="104" y="134.0" text-anchor="end" class="lbl">Python</text>
    <rect x="114" y="124.0" width="190" height="12" rx="6" class="track"/>
    <rect x="114" y="124.0" width="148" height="12" rx="6" fill="#3572A5"/>
    <text x="314" y="134.0" class="val">3.6%</text>
    <text x="104" y="166.0" text-anchor="end" class="lbl">Shell</text>
    <rect x="114" y="156.0" width="190" height="12" rx="6" class="track"/>
    <rect x="114" y="156.0" width="96" height="12" rx="6" fill="#89e051"/>
    <text x="314" y="166.0" class="val">2.3%</text>
    <text x="104" y="198.0" text-anchor="end" class="lbl">Dart</text>
    <rect x="114" y="188.0" width="190" height="12" rx="6" class="track"/>
    <rect x="114" y="188.0" width="95" height="12" rx="6" fill="#8a8a8a"/>
    <text x="314" y="198.0" class="val">2.3%</text>
</g>
</svg>
